<svg class="LinkedinIcon" xmlns="http://www.w3.org/2000/svg" viewBox="0 0 128 128"> <style> #LinkedinIcon { width: 100%; background: transparent } @media (forced-colors: active) { #li_icon_cir { fill: canvasText } } </style> <defs> <mask id="liMsk"> <path fill="#fff" d="M0 0h128v128H0z"/> <path fill="#000" d="M52 88H41V53h11v35zm-5-38c-4 0-6-3-6-6s2-6 6-6 6 3 6 6-2 6-6 6zm44 39H81V71c0-4 0-9-6-9s-6 5-6 9v17H59V53h10v5s5-5 10-5c11 0 12 7 12 16z"/> </mask> </defs> <circle id="li_icon_cir" fill="#06C" cx="64" cy="64" r="63" mask="url(#liMsk)" /> </svg> 