<svg class="TwitterIcon" xmlns="http://www.w3.org/2000/svg" viewBox="0 0 128 128"> <style> #TwitterIcon { width: 100%; background: transparent } @media (forced-colors: active) { #tw_icon_cir { fill: canvasText } } </style> <defs> <mask id="twMsk"> <path fill="#fff" d="M0 0h128v128H0z"/> <path fill="#000" d="M88 51c0 1 0 1 0 2 0 17-13 36-36 36s0 0 0 0-14 0-20-6q1.5 0 3 0s11 0 16-6c-5 0-10-4-12-9q3 1 6 0Q35 66 35 57c0 0 0 0 0 0 2 1 4 2 6 2q-9-8-4-17 10 12 26 13c-1-4 0-9 4-12s13-5 18 1c3-1 6-2 8-3-1 3-3 5-6 7 3 0 5-1 7-2C93 47 91 50 88 51z"/> </mask> </defs> <circle id="tw_icon_cir" fill="#06c" cx="64" cy="64" r="63" mask="url(#twMsk)" /> </svg>